<?xml version="1.0" encoding="UTF-8"?>
<svg xmlns="http://www.w3.org/2000/svg" width="110" height="45" viewBox="0 0 110 45" fill="none">
  <path d="M30.9999 37.9H37.7999V17.5H30.9999V37.9ZM41.1999 14.1H58.1999V7.29999H41.1999V14.1ZM30.9999 7.29999H37.7999V14.1H30.9999V7.29999ZM20.7999 37.9H27.5999V7.29999H20.7999V37.9ZM10.5999 31.1H17.3999V7.29999H10.5999V31.1ZM0.399902 37.9H7.1999V7.29999H0.399902V37.9ZM41.1999 37.9H47.9999V17.5H41.1999V37.9Z" fill="#231F20"></path>
  <path d="M67.6 33.1L64.6 28.8H67.4L69 31.4L70.5 28.8H73L70.2 33L73.5 37.9H70.6L68.9 34.9L66.9 37.9H64.2L67.6 33.1Z" fill="#231F20"></path>
  <path d="M74.5999 25.2H80.1999C81.6999 25.2 82.7999 25.6 83.4999 26.4C84.1999 27.2 84.5999 28.1 84.5999 29.3C84.5999 31.7 82.9999 33.3 80.2999 33.3H77.0999V37.9H74.3999V25.2H74.5999ZM77.2999 31.2H79.9999C81.3999 31.2 81.9999 30.5 81.9999 29.3C81.9999 28.1 81.2999 27.4 79.9999 27.4H77.2999V31.2Z" fill="#231F20"></path>
  <path d="M90.7 33H88.6V38H86V25.2H91.6C93.1 25.2 94.2 25.6 94.9 26.4C95.6 27.2 96 28 96 29.2C96 31 95.1 32.2 93.5 32.8L96.7 38.1H93.7L90.7 33ZM88.6 30.9H91.3C92.7 30.9 93.3 30.3 93.3 29.2C93.3 28.1 92.6 27.5 91.3 27.5H88.6V30.9Z" fill="#231F20"></path>
  <path d="M97.0999 31.6C97.0999 27.8 99.4999 24.9 103.3 24.9C107.1 24.9 109.4 27.7 109.4 31.6C109.4 35.5 107.1 38.2 103.3 38.2C99.4999 38.2 97.0999 35.4 97.0999 31.6ZM106.7 31.6C106.7 29.1 105.6 27.1 103.2 27.1C100.8 27.1 99.6999 29.1 99.6999 31.6C99.6999 34.1 100.9 36.1 103.2 36.1C105.5 36.1 106.7 34.1 106.7 31.6Z" fill="#231F20"></path>
</svg>
